<?xml version="1.0" encoding="utf-8"?>
<!-- Generator: Adobe Illustrator 21.0.0, SVG Export Plug-In . SVG Version: 6.00 Build 0)  -->
<svg version="1.1" id="Calque_1" xmlns="http://www.w3.org/2000/svg" xmlns:xlink="http://www.w3.org/1999/xlink" x="0px" y="0px"
	 viewBox="0 0 841.9 595.3" style="enable-background:new 0 0 841.9 595.3;" xml:space="preserve">
<style type="text/css">
	.st0{fill:#9C200E;}
	.st1{fill:#706F6F;}
	.st2{font-family:'NeuropoliticalRg-Regular';}
	.st3{font-size:10.1228px;}
	.st4{letter-spacing:2;}
	.st5{font-family:'Scriptina';}
	.st6{font-size:108.0189px;}
	.st7{fill:url(#XMLID_2_);}
	.st8{fill:url(#XMLID_3_);}
	.st9{fill:url(#XMLID_4_);}
	.st10{fill:#878787;}
	.st11{fill:url(#XMLID_5_);}
	.st12{fill:url(#XMLID_6_);}
	.st13{fill:url(#XMLID_7_);}
	.st14{fill:#CA3731;}
</style>
<path class="st0" d="M83.9,387.4"/>
<text transform="matrix(1 0 0 1 396.128 392.696)" class="st1 st2 st3 st4">AGENCE CONSEIL EN COMMUNICATION</text>
<text transform="matrix(1 0 0 1 611.0996 311.2136)" class="st1 st5 st6">ml</text>
<linearGradient id="XMLID_2_" gradientUnits="userSpaceOnUse" x1="9.2825" y1="-3.4503" x2="10.5793" y2="-3.4503" gradientTransform="matrix(74.117 0.3694 0.3694 -74.117 -638.7458 69.3717)">
	<stop  offset="0" style="stop-color:#878787"/>
	<stop  offset="0.5948" style="stop-color:#4B4A4A"/>
	<stop  offset="1" style="stop-color:#000000"/>
</linearGradient>
<path id="XMLID_212_" class="st7" d="M119.3,293.3c0,0-36.7-1.6-66.5,47.8c0,0-15.4,26.1,8.3,22.9l55-10.6c0,0,29.6-2.9,28.1-26
	C144,327.3,146.5,321.8,119.3,293.3z"/>
<linearGradient id="XMLID_3_" gradientUnits="userSpaceOnUse" x1="4.8583" y1="0.1942" x2="6.1551" y2="0.1942" gradientTransform="matrix(137.8825 50.9649 50.9649 -137.8825 -662.1371 -59.7688)">
	<stop  offset="0" style="stop-color:#878787"/>
	<stop  offset="0.1665" style="stop-color:#7F7F7F"/>
	<stop  offset="0.4379" style="stop-color:#686867"/>
	<stop  offset="0.7784" style="stop-color:#414040"/>
	<stop  offset="1" style="stop-color:#000000"/>
</linearGradient>
<path id="XMLID_599_" class="st8" d="M47.4,80.6c0,0-7.3,30.4-5.6,51.8l109.9,142.3l15,33l10-31.5c0,0,13.2-34.5-12.5-60.4
	C164.3,215.7,67,107.2,47.4,80.6z"/>
<linearGradient id="XMLID_4_" gradientUnits="userSpaceOnUse" x1="5.2011" y1="0.1196" x2="6.498" y2="0.1196" gradientTransform="matrix(129.2844 47.7868 47.7868 -129.2844 -667.6381 -18.4464)">
	<stop  offset="0" style="stop-color:#878787"/>
	<stop  offset="0.5948" style="stop-color:#4B4A4A"/>
	<stop  offset="1" style="stop-color:#000000"/>
</linearGradient>
<path id="XMLID_664_" class="st9" d="M41.8,129.9c0,0-3,52,34.7,107.8c0,0,17.5,28,45.2,56.5c0,0,27.1,25.1,21.3,42
	c0,0-1.3,9.2-21.8,15.7c0,0,27.3-1.2,39.1-27l9.1-24.7c0,0,3.8-23.5-21.3-47.7C148.2,252.4,85.4,189.1,41.8,129.9z"/>
<path id="XMLID_666_" class="st10" d="M121.2,351.9c0,0,11.3-3.4,16.5-9.1c0,0,12.1-9.7-0.7-28.9c0,0-31.3-36.9-39.1-45.6
	c0,0-20.4-21.3-34.6-53.5c0,0,11.4,25.5,37,53.6c0,0,34.2,37.4,39.2,45.4c0,0,12.1,17.4,0.6,28.9C140,342.6,133,349.3,121.2,351.9z"
	/>
<linearGradient id="XMLID_5_" gradientUnits="userSpaceOnUse" x1="208.904" y1="266.5551" x2="305.1584" y2="266.5551">
	<stop  offset="0" style="stop-color:#DB5857"/>
	<stop  offset="0.5993" style="stop-color:#B53326"/>
	<stop  offset="1" style="stop-color:#9C200E"/>
</linearGradient>
<path id="XMLID_667_" class="st11" d="M233.7,302c0,0,36.7,1.6,66.5-47.8c0,0,15.4-26.1-8.3-22.9l-55,10.6c0,0-29.6,2.9-28.1,26
	C209,268,206.5,273.5,233.7,302z"/>
<linearGradient id="XMLID_6_" gradientUnits="userSpaceOnUse" x1="-5.4698" y1="3.322426e-02" x2="-4.173" y2="3.322426e-02" gradientTransform="matrix(-137.8825 -50.9649 -50.9649 137.8825 -417.1404 150.8811)">
	<stop  offset="0" style="stop-color:#DB5857"/>
	<stop  offset="0.1624" style="stop-color:#D75350"/>
	<stop  offset="0.4132" style="stop-color:#CB463F"/>
	<stop  offset="0.7193" style="stop-color:#B53226"/>
	<stop  offset="1" style="stop-color:#9C200E"/>
</linearGradient>
<path id="XMLID_678_" class="st12" d="M305.6,514.7c0,0,7.3-30.4,5.6-51.8L201.3,320.6l-15-33l-10,31.5c0,0-13.2,34.5,12.5,60.4
	C188.7,379.6,286,488.1,305.6,514.7z"/>
<linearGradient id="XMLID_7_" gradientUnits="userSpaceOnUse" x1="-5.8138" y1="-5.214713e-02" x2="-4.517" y2="-5.214713e-02" gradientTransform="matrix(-129.2844 -47.7868 -47.7868 129.2844 -411.6394 109.5587)">
	<stop  offset="0" style="stop-color:#DB5857"/>
	<stop  offset="0.5993" style="stop-color:#B53326"/>
	<stop  offset="1" style="stop-color:#9C200E"/>
</linearGradient>
<path id="XMLID_683_" class="st13" d="M311.2,465.4c0,0,3-52-34.7-107.8c0,0-17.5-28-45.2-56.5c0,0-27.1-25.1-21.3-42
	c0,0,1.3-9.2,21.8-15.7c0,0-27.3,1.2-39.1,27l-9.1,24.7c0,0-3.8,23.5,21.3,47.7C204.8,342.9,267.6,406.2,311.2,465.4z"/>
<path id="XMLID_684_" class="st14" d="M231.8,243.4c0,0-11.3,3.4-16.5,9.1c0,0-12.1,9.7,0.7,28.9c0,0,31.3,36.9,39.1,45.6
	c0,0,20.4,21.3,34.6,53.5c0,0-11.4-25.5-37-53.6c0,0-34.2-37.4-39.2-45.4c0,0-12.1-17.4-0.6-28.9C213,252.7,220,245.9,231.8,243.4z"
	/>
<g>
	<path class="st0" d="M395.1,301.8c-1.6,1.2-3.3,2.5-5.2,3.8c-1.9,1.3-3.8,2.5-5.7,3.7c-1.9,1.1-3.6,2-5,2.7c-0.4,0.1-1,0.1-1.8,0
		c-0.8-0.1-1.6-0.4-2.4-0.9c-0.8-0.5-1.5-1.1-2.1-1.9c-0.6-0.8-0.9-1.8-0.9-2.9c0-1,0.3-2.3,0.8-4c0.5-1.6,1.1-3.3,1.9-5.2
		c0.8-1.8,1.6-3.7,2.5-5.5c0.9-1.9,1.7-3.6,2.5-5.2c0.8-1.6,1.4-2.9,1.9-4c0.5-1.1,0.8-1.8,0.9-2.1c0.1-0.8,0.5-1.3,1.1-1.6
		c0.6-0.3,1.2-0.3,1.8-0.1c0.6,0.2,1,0.6,1.2,1.3c0.3,0.7,0.1,1.6-0.5,2.8c-2.2,4.1-3.8,7.2-5,9.4c-1.2,2.2-2,3.8-2.5,4.8
		c-0.5,1-0.8,1.6-0.9,1.9c-0.1,0.2-0.2,0.4-0.2,0.6c-0.1,0.2-0.2,0.5-0.4,1c-0.2,0.5-0.7,1.6-1.5,3.1c-0.8,1.6-1.2,2.8-1.2,3.7
		c0,0.9,0.2,1.5,0.6,1.9c0.4,0.4,1,0.6,1.7,0.5c0.7,0,1.3-0.1,2-0.2c1.2-0.3,2.7-0.9,4.5-1.8c1.8-1,3.7-2,5.6-3.2
		c1.9-1.2,3.7-2.4,5.3-3.6c1.7-1.2,2.9-2.2,3.8-3.1c0.6-0.6,1-0.9,1.2-1c0.3-0.1,0.4,0,0.4,0.2c0,0.2,0,0.5-0.2,0.9s-0.5,0.7-0.9,1
		C397.8,299.6,396.7,300.6,395.1,301.8z M389.9,273.1c-1.4,1.3-2.6,1.9-3.5,1.7c-1.4-0.3-2.1-0.8-2.1-1.6c0-0.9,0.7-2.1,2.2-3.5
		c1.5-1.5,2.6-2.4,3.5-2.6c0.7-0.1,1.4,0.1,2,0.6c0.6,0.5,0.8,1.1,0.6,1.7C392.4,270.4,391.5,271.7,389.9,273.1z"/>
	<path class="st0" d="M428.2,284c0.5,0.1,1,0.4,1.4,0.9c0.4,0.4,0.6,0.9,0.6,1.4c-0.1,0.8-0.5,1.5-1,2.3c-1,3.1-2.2,6.7-3.7,11.1
		c-1.4,4.3-3.1,9.3-5.1,15.1c9.7-1.7,18.9-2.6,27.6-2.6c1.6,0,3,0,4.1,0.1c1.2,0.1,2.2,0.2,3.1,0.3c0.7,0.1,1.4,0.4,2.1,0.9
		c0.7,0.4,1.4,1,2,1.7c0.6,0.7,1.1,1.4,1.5,2.1c0.4,0.8,0.6,1.6,0.6,2.4c0,0.8-0.2,1.5-0.5,2.1c-0.8,1.6-2.9,3.7-6.2,6.3
		c-0.6,0.5-1,0.8-1.4,0.8c-0.1,0-0.2,0-0.2-0.1c0-0.4,0.3-0.8,1-1.2c3.8-3.5,5.6-6.6,5.6-9.4c0-2.3-1.6-3.6-4.7-3.8
		c-0.9-0.1-1.9-0.1-3.1-0.1c-1.2,0-2.5,0-4,0c-5.8,0-11,0.2-15.7,0.5c-4.7,0.3-8.9,0.9-12.5,1.8c-18.8,53.5-41.5,81.1-68.2,82.8
		c-9.2,0.5-17.6-2.3-25.2-8.3c-7.7-6-11.5-12.8-11.5-20.3c0-2.4,0.5-4.7,1.5-7.2c4.8-11.4,20.1-22.1,45.7-32.2
		c17.4-6.9,35.7-12.2,54.8-15.8c1.5-3.3,3.2-8.5,5.2-15.5c0.3-1.1,0.6-2.1,0.8-3c0.2-0.9,0.5-1.8,0.7-2.5c-1.1,1-2.6,2.2-4.5,3.7
		c-1.9,1.4-4.3,3.2-7.2,5.2c-3.6,2.5-6.8,4.6-9.4,6.2c-2.7,1.6-4.9,2.8-6.8,3.7c-0.5,0.2-1.1,0.3-1.8,0.3c-2.3,0-3.4-1.1-3.4-3.4
		c0-0.9,0.3-1.9,0.9-3c3-6.1,8.2-11.5,15.6-16.2c7.4-4.6,14.4-6.9,20.9-6.9C427.9,283.8,428.1,283.9,428.2,284z M317.4,372.1
		c0,6.7,3.3,12.7,10,17.8c7.1,5.4,15,7.9,23.8,7.5c15.4-0.6,30-12.1,43.9-34.5c4.3-6.9,8.2-14.2,11.7-21.8
		c3.5-7.6,6.7-15.7,9.5-24.3c-23,4.8-43.1,11.2-60.3,19c-20.8,9.7-33.3,19.7-37.5,30.2C317.8,368,317.4,370,317.4,372.1z
		 M424.5,288.6C424.5,288.5,424.4,288.5,424.5,288.6l-0.1-0.2c0-0.2,0-0.3,0.1-0.4c0-1.1-0.2-1.7-0.7-1.8c-0.7-0.3-2.2-0.1-4.4,0.5
		c-4.6,1.1-9.3,3.4-13.8,6.9c-4.8,3.8-7.9,7.7-9.3,11.6c-0.1,0.3-0.1,0.6-0.1,0.8c0,0.2,0,0.4,0,0.8c0,2,0.8,3.1,2.3,3.1
		c1.3,0,5.2-2.3,11.7-7c2.6-1.8,4.9-3.5,6.8-5c1.9-1.5,3.5-2.8,4.8-4C423.4,292.6,424.3,290.9,424.5,288.6z"/>
	<path class="st0" d="M427.6,308.5c-0.3-0.3-0.2-0.8,0.2-1.5c1.5-3.1,3.9-7.3,7.4-12.7c1.7-2.5,3.2-4.8,4.7-6.8
		c1.5-2,2.8-3.8,4.1-5.3c0.2-0.3,0.5-0.6,0.8-0.8c0.3-0.2,0.9-0.3,1.6-0.5c0.4-0.1,0.6-0.1,0.7,0c0,0.3-0.1,0.5-0.3,0.7
		c-2.4,2.8-4.5,5.6-6.2,8.3c-1.7,2.8-3.3,5.6-4.5,8.4c-0.3,0.3-0.4,0.7-0.4,1.2c0,0.7,0.3,1,0.8,1c0.4,0,0.8-0.2,1.1-0.7
		c1.8-1.7,3.6-3.4,5.6-5.1c1.9-1.7,3.9-3.4,6-5c4.8-3.8,8-6,9.6-6.7c0.9-0.8,1.7-1.3,2.4-1.5c1.4-0.6,2.5-0.8,3.3-0.4
		c0.9,0.3,0.9,1-0.1,2.2c-4.5,5.8-8.6,12.5-12.2,20c-3.5,7.5-5.4,13.5-5.6,17.9c-0.3,2.9,0.3,5.2,1.8,6.8c1.3,1.4,3.1,2.1,5.2,2.1
		c1,0,1.9-0.1,2.8-0.4c3.6-1,8.2-3.8,13.6-8.5c6-5.2,9.1-9.3,9.1-12.4c0-0.6-0.1-1.1-0.4-1.4c-0.3-0.3-0.6-0.5-1-0.6
		c-0.4-0.1-0.7-0.1-1-0.1c-0.3,0-0.4-0.1-0.4-0.3c0-0.4,0.3-0.7,0.8-1c0.5-0.3,1-0.4,1.5-0.4c1.1,0,1.6,0.7,1.6,2.2
		c0,0.7-0.2,1.6-0.6,2.8c-0.6,1.8-1.6,3.8-3.1,5.8c-1.5,2-3.3,4.2-5.5,6.4c-6.1,6-12.7,9.4-19.8,10.2c-2.5,0.3-4.6-0.4-6.3-2.1
		c-1.8-1.9-2.5-4.9-2.2-9c0.4-4.6,2.4-10.3,6-17.3c1.5-2.9,3-5.7,4.6-8.4c1.6-2.7,3.4-5.3,5.2-7.9c0.2-0.3,0.3-0.6,0.3-1
		c0-1-0.6-1.5-1.7-1.5c-0.5,0-1,0.2-1.5,0.5c-3.6,2.5-7.2,5.5-10.8,9c-3.6,3.4-7.3,7.3-11,11.7c-0.6,0.8-2.3,1.5-4.9,2.1
		C428.1,309.1,427.7,308.9,427.6,308.5z"/>
	<path class="st0" d="M461.4,310.7c-1.6,0-2.4-1.1-2.4-3.3c0-4.5,3.5-10.3,10.6-17.4c3.2-3.2,6.3-5.9,9.2-7.9c2.9-2,5.5-3.5,8-4.5
		c0.6-0.2,1.2-0.4,1.9-0.5c0.7-0.2,1.4-0.2,2.1-0.2c0.8,0,1.5,0.1,2.3,0.2c0.8,0.2,1.5,0.4,2.3,0.6c1.1,0.1,1.7,0.2,1.8,0.1
		c1.1-0.2,2-0.6,2.5-1.2c0.1-0.1,0.3-0.2,0.6-0.2c0.3,0,0.5,0.2,0.7,0.5c0.2,0.3,0.3,0.5,0.2,0.7c-1.8,2.9-3.7,5.7-5.5,8.4
		c-1.8,2.8-3.6,5.6-5.3,8.4c-1.3,2.2-2.6,4.8-3.9,7.7c-1.3,2.9-2.4,5.8-3.5,8.8c-1,3-2,5.8-2.7,8.4c-0.8,2.7-1.3,4.9-1.5,6.8
		c-0.1,0.3-0.1,0.6-0.1,0.9c0,0.3,0,0.6,0,1c0,2.2,0.7,3.8,2,4.8s3.1,1.6,5.4,1.6c2.3,0,4.5-0.4,6.8-1.1c3.4-1.1,7.8-3.9,13.2-8.2
		c2.6-2.1,4.9-4.3,7-6.5c2.1-2.2,3.9-4.3,5.4-6.3c0.6-0.6,1-1,1.1-1c0.1,0.1,0.1,0.2,0.1,0.3c0,0.3-0.1,0.6-0.4,1
		c-1.5,2.2-3.2,4.5-5.3,6.9c-2.1,2.4-4.5,4.8-7.4,7.2c-2.7,2.2-5.1,3.9-7.2,5.3c-2.1,1.4-4.1,2.4-5.9,3.1c-0.9,0.3-1.8,0.6-2.7,0.7
		c-0.9,0.2-1.8,0.2-2.9,0.2c-1.5,0-2.9-0.2-4.2-0.7c-1.3-0.5-2.4-1.1-3.4-1.8c-1.2-0.7-2.1-1.7-2.5-3c-0.5-1.3-0.7-2.8-0.6-4.4
		c0.1-1.3,0.3-3.1,0.8-5.3c0.5-2.2,1.1-4.6,1.9-7.1c0.8-2.5,1.6-5,2.5-7.5c0.9-2.5,1.8-4.7,2.7-6.6c1.1-2.3,2.1-4.4,3.2-6.4
		c1-2,2.1-3.8,3.2-5.4c0.4-0.7,0.4-1-0.1-1c-0.1,0-0.2,0.1-0.3,0.2c-1.5,1.8-3.4,3.8-5.5,5.8c-2.1,2-4.6,4.3-7.4,6.7
		c-5.6,4.7-10.4,8.2-14.4,10.6C462.7,310.5,462,310.7,461.4,310.7z M464.7,304.1c0,1.5,0.6,2.3,1.7,2.3c0.4,0,0.9-0.2,1.4-0.5
		c3.6-2.2,7.3-5.2,11.3-9c3.9-3.8,8.2-8.4,12.7-13.8c0.2-0.2,0.3-0.4,0.3-0.7c0-0.7-0.4-1.4-1.2-2c-0.8-0.6-1.9-0.9-3.1-0.9
		c-0.7,0-1.4,0.1-2.2,0.3c-3,0.8-6.8,3.7-11.4,8.7c-2.2,2.4-4,4.7-5.5,7c-1.5,2.2-2.7,4.4-3.6,6.4
		C464.8,302.6,464.7,303.3,464.7,304.1z"/>
	<path class="st0" d="M485.4,358.5c-1.7-1.8-2.8-3.9-3.2-6.2c-0.4-2.3-0.7-4.8-0.7-7.6c0-9,3.7-21.8,11-38.5
		c3.2-7.4,6.5-14,9.7-19.9c3.2-5.9,6.5-11.2,9.7-15.9c0.8-0.8,1.1-1.8,1.1-2.9c0-1.1-0.6-2-1.7-2.7c-2.3-0.9-3.2-1.9-2.7-3
		c0.2-0.4,1.1-0.7,2.8-0.9c1.7-0.2,4.1-0.3,7.1-0.3c0.3,0,0.3-0.1,0.1-0.3c-0.2-0.2-0.2-0.4-0.1-0.6c3.1-4.8,6.6-9.5,10.6-14.3
		c4-4.7,8.2-9.7,12.6-14.7c0.4-0.4,2.2-1.3,5.3-2.5c1.5-0.5,2.6-0.9,3.3-1.2c0.7-0.3,1.4-0.4,2.1-0.4c0.7,0,1,0.3,1,0.9
		c0,0.3-0.3,0.5-1,0.7c-6,1.2-15.9,11.3-29.7,30.2c-1,1.5-0.8,2.2,0.7,2.2h13.8c3.8,0,6.7,0,8.7,0c2.1,0,3.4,0,3.9,0
		c0.6,0,1,0.1,1.1,0.3c0,0.1-0.2,0.5-0.5,1c-0.4,0.5-0.8,0.8-1.4,0.9c-3.6,0.1-7.8,0.3-12.4,0.6c-4.7,0.3-10,0.6-16,0.9
		c-1.1,0.2-1.9,0.7-2.4,1.5c-3.4,5-6.6,9.9-9.5,14.8c-3,4.9-5.9,10.2-8.8,15.9c-4.4,9.1-7.9,17.3-10.4,24.8
		c-2.5,7.4-4.1,14.1-4.6,20c-0.1,0.8-0.1,1.6-0.1,2.3c0,0.8,0,1.5,0,2.3c0,11.1,3.9,16.6,11.7,16.6c2.2,0,4.7-0.4,7.4-1.2
		c4-1.3,8-3.3,11.9-6c3.9-2.7,7.9-6.3,12-10.7c4.2-4.4,7.4-8.5,9.7-12.3c2.3-3.8,3.6-7.4,4.1-10.9c0-6-2.1-8.6-6.4-7.9
		c-1,0.1-1.8,0.4-2.5,0.9c-0.7,0.4-1.2,0.7-1.5,0.7c-0.6,0-0.9-0.3-0.8-0.9c0.3-0.5,0.8-1,1.4-1.3c0.6-0.4,1.7-0.9,3.4-1.6
		c0.3-0.1,0.6-0.1,1.1-0.1c2,0,4,1.4,5.8,4.1c1.9,2.9,2.8,5,2.7,6.5c-1.3,8.4-7.3,17.5-18.2,27.4c-5.5,5-10.7,8.7-15.5,11.3
		c-4.8,2.5-9.3,3.8-13.6,3.8C492.9,364.3,488.7,362.3,485.4,358.5z"/>
	<path class="st0" d="M545.1,287.8c-1.1,1.9-2.1,3.9-3.1,5.9c-1,2-1.9,4-2.6,5.9c-0.8,1.9-1.2,3.5-1.4,4.8c-0.2,1.1-0.2,2,0,2.5
		c0.2,0.5,0.4,0.8,0.7,0.9c0.3,0.1,0.7,0.1,1.2,0c0.5-0.1,0.9-0.3,1.4-0.4c0.4-0.1,1-0.3,1.6-0.6c0.6-0.3,1.1-0.6,1.5-0.8
		c1-0.7,1.6-0.8,1.7-0.2c0.1,0.5-0.2,1.2-1,1.9c-0.6,0.7-1.4,1.4-2.3,2c-0.9,0.6-1.8,1.1-2.6,1.4c-0.4,0.1-0.9,0.1-1.4-0.2
		c-0.6-0.3-1.1-0.6-1.6-1.1s-0.9-1-1.2-1.6c-0.3-0.6-0.5-1.2-0.5-1.9c0-1.2,0.1-2.5,0.4-3.8c0.3-1.3,0.7-2.6,1.1-3.9
		c0.4-1.3,0.9-2.5,1.5-3.8c0.5-1.2,1-2.4,1.5-3.5c0.4-1,0.4-1.7,0-2.3c-0.4-0.6-1.1-0.3-2.3,0.8c-1.5,1.5-3.5,3.5-6,5.8
		c-2.4,2.3-4.9,4.6-7.4,6.9c-2.5,2.3-4.8,4.3-6.9,6c-2.1,1.7-3.7,2.8-4.7,3.1c-1.7,0.6-3.1,0.3-4.2-0.8c-1.1-1.1-1.6-2.5-1.4-4.1
		c0.1-1.5,0.5-3.1,1.2-5.1c0.7-1.9,1.5-3.9,2.6-5.9c1-2,2.2-4,3.4-6.1c1.2-2.1,2.5-4,3.8-5.9c1.3-1.8,2.5-3.5,3.6-5
		c1.1-1.5,2.1-2.7,2.9-3.7c0.3-0.4,0.7-0.7,1.3-0.8c0.5-0.2,1-0.2,1.4,0c0.4,0.1,0.6,0.4,0.7,0.8c0.1,0.4-0.2,1-0.8,1.8
		c-1.5,1.8-3,3.8-4.6,6.2c-1.6,2.4-3.2,4.7-4.6,7.2c-1.5,2.4-2.8,4.8-4,7.1c-1.2,2.3-2,4.3-2.4,6c-0.8,2.6-0.7,4.3,0,5
		c0.8,0.7,2,0.7,3.6-0.2c2.5-1.5,5.1-3.5,7.9-6.1c2.8-2.5,5.5-5.1,8.2-7.9c2.7-2.7,5.3-5.4,7.8-8c2.5-2.6,4.7-4.8,6.6-6.5
		c0.6-0.6,1.1-0.8,1.5-0.6c0.4,0.2,0.8,0.6,1,1.1c0.3,0.5,0.4,1.1,0.4,1.7c0,0.6,0,1.1-0.2,1.4C547.2,284.2,546.2,285.8,545.1,287.8
		z"/>
	<path class="st0" d="M545.9,312.5c-0.1-0.3-0.1-0.6,0.1-1c6.2-9.5,10.4-16.9,12.6-22c0.4-1,0.6-1.7,0.6-2.4c0-0.1-0.1-0.5-0.3-1
		c-0.1-0.3-0.1-0.5,0-0.7c0.8-0.3,3.1-1.6,7.2-4c0.1-0.1,0.2-0.2,0.4-0.2c0.4,0,0.6,0.2,0.8,0.5c0.3,0.4,0.2,0.7-0.1,1
		c-2,2.8-3.8,5.2-5.2,7.3c-1.4,2.1-2.5,3.8-3.2,5.2c-0.2,0.4-0.3,0.7-0.3,1c0,0.3,0.3,0.4,1,0.1c0.6-0.3,1-0.5,1.1-0.8
		c2.5-3,5.7-6.1,9.6-9.3c4.1-3.3,7.3-5.4,9.5-6.4c2-0.1,3.4,0.1,4.4,0.6c0.1,0.1,0.1,0.1,0.1,0.2c0,0.2-0.1,0.5-0.3,0.8
		c-0.2,0.3-0.5,0.7-0.8,1c-0.3,0.3-0.6,0.5-0.9,0.7c-0.3,0.2-0.6,0.2-0.8,0c-1.3-0.6-3-0.3-5.2,0.9c-9.4,5.2-17.8,13.9-25.2,25.9
		c0,0.2-0.3,0.4-0.8,0.7c-0.5,0.2-1.1,0.4-1.7,0.7c-0.6,0.3-1.4,0.7-2.2,1.2C546.1,312.8,546,312.8,545.9,312.5z"/>
	<path class="st0" d="M616.5,284.4c-1.4,1-3,1.6-4.8,1.9c-1.1,0.2-2.7,0.3-4.8,0.4c-2.1,0.1-4.5,0.1-7,0.2c-2.5,0.1-5.1,0.1-7.6,0.1
		c-2.5,0-4.8,0-6.7,0c-0.7,1-1.4,2-2.2,3.2c-0.8,1.2-1.5,2.4-2.2,3.8c-0.7,1.3-1.3,2.7-1.8,4.1c-0.5,1.4-0.8,2.9-0.9,4.4
		c-0.1,1.4,0.1,2.5,0.4,3.4c0.3,0.9,0.8,1.6,1.4,2.1c0.6,0.5,1.3,0.8,2.1,1c0.8,0.2,1.6,0.2,2.4,0.1c2.1-0.3,4.3-0.9,6.7-1.8
		c2.4-0.9,4.4-1.8,6.2-2.8c0.5-0.3,0.9-0.4,1.1-0.1c0.3,0.2,0.1,0.5-0.4,0.8c-0.7,0.5-1.5,1.1-2.5,1.7c-1,0.6-2,1.2-3.1,1.8
		c-1.1,0.6-2.3,1.1-3.6,1.6c-1.2,0.5-2.4,0.8-3.6,1c-1,0.2-2,0.1-3.1-0.3c-1.1-0.4-2.2-1-3.1-1.9c-1-0.8-1.7-1.8-2.4-2.9
		c-0.6-1.1-0.9-2.3-0.9-3.6c0.2-3.5,1.2-7,2.9-10.5c1.7-3.5,3.9-6.8,6.4-9.8c2.5-3,5.2-5.6,7.9-7.8c2.8-2.2,5.3-3.7,7.5-4.6
		c1.2-0.4,2.3-0.3,3.2,0.1c1,0.5,1.7,1.2,2.2,2.1c0.5,0.9,0.9,2,1,3.1c0.1,1.1-0.1,2.2-0.7,3.1c-1,1.8-2.7,3.3-5.2,4.5
		c-2.5,1.2-5.3,2.1-8.5,2.6c1.7,0,3.5,0,5.2,0c1.8,0,3.6,0,5.2,0c1.7,0,3.2-0.1,4.6-0.1c1.4-0.1,2.7-0.2,3.7-0.3
		c1.3-0.1,2.7-0.5,4.1-1.2c1.4-0.7,2.4-1.4,3.2-2.1c0.3-0.4,0.6-0.6,0.8-0.5c0.2,0.1,0.2,0.4-0.1,0.9
		C619,282.5,618,283.4,616.5,284.4z M605.3,274.7c0.1-0.8-0.1-1.4-0.5-1.8c-0.4-0.4-0.9-0.6-1.7-0.6c-0.7,0-1.6,0.3-2.5,0.8
		c-2.4,1.3-4.7,3.1-7.2,5.3c-2.4,2.2-4.7,4.5-6.9,6.8c1.7,0,3.4-0.2,5.2-0.6c1.8-0.4,3.5-0.9,5.1-1.7c1.6-0.7,3-1.6,4.3-2.5
		c1.3-1,2.3-2,3.1-3.1C604.9,276.3,605.3,275.4,605.3,274.7z"/>
</g>
<g>
	<path class="st0" d="M312.3,286c11.8-2.7,24.9-4.7,39.3-5.9c-4.5-6-9.5-12.6-14.8-19.9c-5.3-7.3-11.3-15.3-17.8-24.1
		c-7.7-10.1-11.6-19.3-11.6-27.4c0-8.9,4.7-16.4,14-22.4c19.7-12.7,42.9-19,69.4-19c9.7,0,17.8,1,24.2,3c4.8,1.7,9,4.7,12.6,9
		c3.3,5.1,5,10.5,5,16.2c0,1.9-0.2,3.8-0.5,5.7c-0.3,1.9-0.9,3.9-1.7,5.9c-0.5,1.3-1.1,2.3-1.6,2.8c-0.4,0.7-0.7,0.7-0.8,0
		c-0.1-0.5,0-1.8,0.3-3.7c0.3-1.9,0.5-4,0.5-6.3c0-6.7-1.9-12.4-5.6-17.2c-3.5-4.3-8.1-7.2-13.8-8.8c-3.5-1.1-7.2-1.8-11.2-2.2
		s-8.3-0.6-12.8-0.6c-24.7,0-44.9,5.9-60.8,17.8c-8,5.6-12,12.4-12,20.4c0,6.4,3.3,14.5,9.8,24.2c3.9,4.8,8.8,11,14.9,18.7
		c6.1,7.7,13.1,16.8,21.1,27.5c2.3,0,5,0,8.2,0c3.3,0,7.1-0.1,11.2-0.2c1.5,0,2.2,0.3,2.2,0.8c0,0.7-2.4,1.1-7.2,1.2
		c-6.7,0.1-10.7,0.3-12.2,0.6c3.7,6.3,5.6,12.7,5.6,19.2c0,13.3-7.1,23-21.4,29c-6.1,2.5-12.4,4.5-18.9,5.8c-6.5,1.3-13.2,2-20.1,2
		c-10.3,0-19.1-1.3-26.4-4c-10.9-3.7-16.4-9.9-16.4-18.4c0-8,5.9-14.5,17.6-19.4C290,292.1,300.5,288.7,312.3,286z M335.7,285.4
		c-5.1,0.9-9.6,1.7-13.3,2.5c-15.9,3.2-28.9,7.5-39,12.8c-11.3,5.7-17,11.6-17,17.6c0,2.8,1.7,5.7,5.2,8.8c2.4,2.1,5.1,3.6,8.2,4.4
		c3.9,1.1,7.7,1.8,11.6,2.2c3.9,0.4,7.9,0.6,12,0.6c7.1,0,13.8-0.8,20.2-2.3c6.4-1.5,12.6-3.8,18.6-6.7c11.9-6,17.8-14.1,17.8-24.2
		c0-6.7-2.3-12.7-6.8-18.2C346.7,283.7,340.9,284.5,335.7,285.4z"/>
</g>
</svg>
